<?xml version="1.0" encoding="utf-8"?>
<!-- Generator: Adobe Illustrator 20.1.0, SVG Export Plug-In . SVG Version: 6.00 Build 0)  -->
<svg version="1.1" xmlns="http://www.w3.org/2000/svg" xmlns:xlink="http://www.w3.org/1999/xlink" x="0px" y="0px"
	 viewBox="0 0 100 100" style="enable-background:new 0 0 100 100;" xml:space="preserve">
<path d="M32.8,89.8c37,0,57.2-30.6,57.2-57.2c0-0.9,0-1.7-0.1-2.6c3.9-2.8,7.3-6.4,10-10.4c-3.7,1.6-7.6,2.7-11.5,3.2
	c4.2-2.5,7.3-6.5,8.8-11.1c-3.9,2.3-8.3,4-12.8,4.9C76.9,8.4,64.2,8,56.1,15.6c-5.2,4.9-7.4,12.2-5.8,19.2
	c-16.2-0.8-31.2-8.4-41.4-21C3.5,23,6.2,34.8,15,40.7c-3.2-0.1-6.3-1-9.1-2.5c0,0.1,0,0.2,0,0.3c0,9.6,6.7,17.8,16.1,19.7
	c-3,0.8-6.1,0.9-9.1,0.3c2.6,8.2,10.2,13.8,18.8,14c-7.1,5.6-15.9,8.6-25,8.6c-1.6,0-3.2-0.1-4.8-0.3C11.2,86.7,21.9,89.8,32.8,89.8
	"/>
</svg>
